<svg viewBox="0 0 14 14" xmlns="http://www.w3.org/2000/svg"><path d="m9.3272494 8.0532566c.1437182-.05868.2920143-.066834.4282324-.03444.2911922.069354.5272082.3200283.5468462.6496446-.096516-.1182481-.224334-.1950962-.363462-.2278922-.1403761-.03342-.2932863-.0219-.4382464.0372-.2882523.1175941-.4674725.3912424-.4394884.6970387-.3179043-.3649324-.1846622-.9372729.2661182-1.1215091zm.2226902 4.2071444c.2815743.175014 1.1676554.66213 2.0725344 1.739599.817999-.33423 1.600915-.653431 2.377526-.970093-.352194-.86475-.08478-1.348129-.43533-2.207048-.239359-.586146-.442405-.642738-.831337-.662802l.122832.30288c.07476.18234-.200952.293484-.27447.112164l-.110292-.269658c-.08942-.22017-.376843-.163974-.628363-.165444l.149568.366798c.07396.181518-.200532.294306-.27489.112164l-.129486-.318156c-.09191-.224952-.391447-.159984-.645031-.155622l.15834.388326c.07476.183192-.201354.29346-.274896.112614l-.642961-1.5731054c-.199686-.4892105-.9575347-.1992902-.7511465.3068403l.9483605 2.3249001c-.138702-.092328-.394386-.206364-.5690221-.247332-.5406185-.128238-.8881809.413598-.2619363.802975z"/></svg>